
		<svg xmlns="http://www.w3.org/2000/svg" xmlns:xlink="http://www.w3.org/1999/xlink" version="1.1" width="3099.5024875621884" height="1054.726368159204">
			
			<g transform="scale(4.975124378109452) translate(10, 10)">
				<defs id="SvgjsDefs1047"/><g id="SvgjsG1048" featureKey="root" fill="#000" transform="matrix(1,0,0,1,0,0)"/><g id="SvgjsG1049" featureKey="symbol1" fill="#000" transform="matrix(0.012393109431156277,0,0,0.012393109431156277,251,5)"><defs/><g><polygon class="fil0" points="4035,1892 4361,2932 5425,2695 4688,3498 5425,4301 4361,4064 4035,5104 3708,4064 2644,4301 3381,3498 2644,2695 3708,2932 " style="fill: #fbd0d0;"/><path class="fil0" d="M3121 3695l-3121 -189 3124 -201 177 193 -180 197zm-1340 -192l1294 78 76 -83 -73 -79 -1297 84z" style="fill: #fbd0d0;"/><path class="fil0" d="M3748 4388l-1724 2608 1388 -2806 256 -57 80 255zm-836 1064l714 -1081 -33 -108 -105 24 -576 1165z" style="fill: #fbd0d0;"/><path class="fil0" d="M4662 4191l1397 2797 -1736 -2605 78 -250 261 58zm503 1256l-579 -1159 -109 -25 -33 103 721 1081z" style="fill: #fbd0d0;"/><path class="fil0" d="M4948 3302l3121 188 -3124 201 -177 -193 180 -196zm1340 192l-1294 -78 -75 82 72 79 1297 -83z" style="fill: #fbd0d0;"/><path class="fil0" d="M4321 2609l1724 -2609 -1388 2806 -256 57 -80 -254zm837 -1065l-715 1082 34 107 104 -23 577 -1166z" style="fill: #fbd0d0;"/><path class="fil0" d="M2010 8l1737 2605 -79 250 -260 -58 -1398 -2797zm1615 2622l-720 -1080 579 1159 109 24 32 -103z" style="fill: #fbd0d0;"/></g></g><g id="SvgjsG1050" featureKey="text1" fill="#000" transform="matrix(4.1322310032790766,0,0,4.1322310032790766,2.4380167582629597,78.85950874611872)"><path d="M6.62 20.12 c-0.46 0 -0.94 -0.06 -1.44 -0.16 c-1.48 -0.3 -2.92 -1.02 -4.18 -2.12 l-0.38 -0.34 l1.76 -2 l0.38 0.34 c0.92 0.8 1.94 1.34 2.94 1.54 l0.02 0 c0.3 0.06 0.6 0.1 0.9 0.1 c0.5 0 0.96 -0.1 1.34 -0.28 c0.48 -0.2 1.04 -0.64 1.04 -1.46 c0 -0.44 -0.22 -0.78 -0.68 -1.06 c-0.56 -0.34 -1.32 -0.52 -1.86 -0.62 c-0.24 -0.04 -2.28 -0.46 -3.22 -0.98 c-0.62 -0.38 -1.1 -0.86 -1.44 -1.42 c-0.34 -0.58 -0.5 -1.22 -0.5 -1.92 c0 -0.76 0.24 -1.52 0.7 -2.22 c0.44 -0.58 1.04 -1.06 1.76 -1.4 s1.52 -0.52 2.38 -0.52 c0.34 0 0.7 0.04 1.06 0.08 c1.32 0.24 2.62 0.84 3.76 1.8 l0.38 0.32 l-1.7 2.06 l-0.38 -0.32 c-1.3 -1.06 -2.42 -1.3 -3.14 -1.3 c-0.46 0 -0.88 0.1 -1.24 0.26 c-0.56 0.26 -0.92 0.74 -0.92 1.22 c0 0.44 0.16 0.72 0.54 0.98 s0.96 0.46 1.88 0.66 c0.12 0.02 0.28 0.06 0.44 0.1 c0.84 0.16 1.96 0.4 2.74 0.86 c0.68 0.36 1.2 0.86 1.56 1.44 s0.54 1.26 0.54 1.98 c0 0.9 -0.24 1.7 -0.72 2.38 c-0.42 0.58 -1.04 1.08 -1.86 1.48 c-0.7 0.36 -1.48 0.52 -2.46 0.52 z M19.22 20 l-2.68 0 l0 -11.6 l-3.5 0 l0 -2.64 l9.68 0 l0 2.64 l-3.5 0 l0 11.6 z M37.06 20 l-2.88 0 l-1.46 -3.84 l-4.72 0 l-1.48 3.84 l-2.86 0 l5.48 -14.24 l2.42 0 z M29.04 13.52 l2.64 0 l-1.32 -3.46 z M50.72 20 l-3.16 0 l-5.06 -6.96 l-1.14 0 l0 6.96 l-2.6 0 l0 -14.24 l5.1 0 c0.96 0 1.86 0.38 2.56 1.08 s1.08 1.6 1.08 2.56 c0 1.42 -0.84 2.7 -2.08 3.3 z M41.36 10.44 l2.5 0 c0.56 0 1.04 -0.46 1.04 -1.04 s-0.48 -1.04 -1.04 -1.04 l-2.5 0 l0 2.08 z  M62.14 20.12 c-0.46 0 -0.94 -0.06 -1.44 -0.16 c-1.48 -0.3 -2.92 -1.02 -4.18 -2.12 l-0.38 -0.34 l1.76 -2 l0.38 0.34 c0.92 0.8 1.94 1.34 2.94 1.54 l0.02 0 c0.3 0.06 0.6 0.1 0.9 0.1 c0.5 0 0.96 -0.1 1.34 -0.28 c0.48 -0.2 1.04 -0.64 1.04 -1.46 c0 -0.44 -0.22 -0.78 -0.68 -1.06 c-0.56 -0.34 -1.32 -0.52 -1.86 -0.62 c-0.24 -0.04 -2.28 -0.46 -3.22 -0.98 c-0.62 -0.38 -1.1 -0.86 -1.44 -1.42 c-0.34 -0.58 -0.5 -1.22 -0.5 -1.92 c0 -0.76 0.24 -1.52 0.7 -2.22 c0.44 -0.58 1.04 -1.06 1.76 -1.4 s1.52 -0.52 2.38 -0.52 c0.34 0 0.7 0.04 1.06 0.08 c1.32 0.24 2.62 0.84 3.76 1.8 l0.38 0.32 l-1.7 2.06 l-0.38 -0.32 c-1.3 -1.06 -2.42 -1.3 -3.14 -1.3 c-0.46 0 -0.88 0.1 -1.24 0.26 c-0.56 0.26 -0.92 0.74 -0.92 1.22 c0 0.44 0.16 0.72 0.54 0.98 s0.96 0.46 1.88 0.66 c0.12 0.02 0.28 0.06 0.44 0.1 c0.84 0.16 1.96 0.4 2.74 0.86 c0.68 0.36 1.2 0.86 1.56 1.44 s0.54 1.26 0.54 1.98 c0 0.9 -0.24 1.7 -0.72 2.38 c-0.42 0.58 -1.04 1.08 -1.86 1.48 c-0.7 0.36 -1.48 0.52 -2.46 0.52 z M80.66000000000001 20 l-2.68 0 l0 -6.9 l-5.78 0 l0 6.9 l-2.68 0 l0 -14.24 l2.68 0 l0 4.72 l5.78 0 l0 -4.72 l2.68 0 l0 14.24 z M95.76 20 l-2.88 0 l-1.46 -3.84 l-4.72 0 l-1.48 3.84 l-2.86 0 l5.48 -14.24 l2.42 0 z M87.74000000000001 13.52 l2.64 0 l-1.32 -3.46 z M100.32000000000001 20 l-2.66 0 l0 -14.24 l5.1 0 c0.98 0 1.9 0.38 2.6 1.08 c0.68 0.7 1.08 1.6 1.08 2.58 c0 2.02 -1.66 3.64 -3.68 3.64 l-2.44 0 l0 6.94 z M100.32000000000001 10.44 l2.44 0 c0.56 0 1 -0.46 1 -1.02 s-0.46 -1.04 -1 -1.04 l-2.44 0 l0 2.06 z M118.12 20 l-9.2 0 l0 -14.24 l9.38 0 l0 2.6 l-6.7 0 l0 2.1 l5.84 0 l0 2.66 l-5.84 0 l0 4.24 l6.52 0 l0 2.64 z M132.2 20 l-3.16 0 l-5.06 -6.96 l-1.14 0 l0 6.96 l-2.6 0 l0 -14.24 l5.1 0 c0.96 0 1.86 0.38 2.56 1.08 s1.08 1.6 1.08 2.56 c0 1.42 -0.84 2.7 -2.08 3.3 z M122.84 10.44 l2.5 0 c0.56 0 1.04 -0.46 1.04 -1.04 s-0.48 -1.04 -1.04 -1.04 l-2.5 0 l0 2.08 z M139.02 20.12 c-0.46 0 -0.94 -0.06 -1.44 -0.16 c-1.48 -0.3 -2.92 -1.02 -4.18 -2.12 l-0.38 -0.34 l1.76 -2 l0.38 0.34 c0.92 0.8 1.94 1.34 2.94 1.54 l0.02 0 c0.3 0.06 0.6 0.1 0.9 0.1 c0.5 0 0.96 -0.1 1.34 -0.28 c0.48 -0.2 1.04 -0.64 1.04 -1.46 c0 -0.44 -0.22 -0.78 -0.68 -1.06 c-0.56 -0.34 -1.32 -0.52 -1.86 -0.62 c-0.24 -0.04 -2.28 -0.46 -3.22 -0.98 c-0.62 -0.38 -1.1 -0.86 -1.44 -1.42 c-0.34 -0.58 -0.5 -1.22 -0.5 -1.92 c0 -0.76 0.24 -1.52 0.7 -2.22 c0.44 -0.58 1.04 -1.06 1.76 -1.4 s1.52 -0.52 2.38 -0.52 c0.34 0 0.7 0.04 1.06 0.08 c1.32 0.24 2.62 0.84 3.76 1.8 l0.38 0.32 l-1.7 2.06 l-0.38 -0.32 c-1.3 -1.06 -2.42 -1.3 -3.14 -1.3 c-0.46 0 -0.88 0.1 -1.24 0.26 c-0.56 0.26 -0.92 0.74 -0.92 1.22 c0 0.44 0.16 0.72 0.54 0.98 s0.96 0.46 1.88 0.66 c0.12 0.02 0.28 0.06 0.44 0.1 c0.84 0.16 1.96 0.4 2.74 0.86 c0.68 0.36 1.2 0.86 1.56 1.44 s0.54 1.26 0.54 1.98 c0 0.9 -0.24 1.7 -0.72 2.38 c-0.42 0.58 -1.04 1.08 -1.86 1.48 c-0.7 0.36 -1.48 0.52 -2.46 0.52 z"/></g><g id="SvgjsG1051" featureKey="text3" fill="#000" transform="matrix(1.038781330831589,0,0,1.038781330831589,222.75346284879868,161.81994275971863)"><path d="M9.46 11.5 l-6.56 0 l0 4.74 l5.42 0 l0 1.42 l-5.42 0 l0 6.34 l-1.7 0 l0 -14 l8.26 0 l0 1.5 z M13.02 10 l0 14 l-1.66 0 l0 -14 l1.66 0 z M24.46 10 l0 1.56 l-3.88 0 l0 12.44 l-1.66 0 l0 -12.44 l-3.9 0 l0 -1.56 l9.44 0 z  M43.88 22.66 c0.48 0 0.86 -0.12 1.28 -0.36 l0 1.36 c-0.42 0.32 -0.82 0.46 -1.44 0.46 c-1.26 0 -1.86 -0.76 -1.86 -2.02 l0 -0.52 c-0.66 1.62 -2.16 2.66 -4.34 2.66 c-2.64 0 -5.06 -1.6 -5.06 -4.52 c0 -2.52 1.86 -3.94 3.96 -4.16 l-3.24 -5.56 l8.78 0 l0 1.44 l-6.44 0 l3.08 5.28 l-0.9 0 c-2 0 -3.58 1.14 -3.58 3 c0 1.98 1.64 3.06 3.5 3.06 c2.14 0 3.74 -1.42 3.74 -3.38 l0 -3.54 l3.16 0 l0 1.38 l-1.56 0 l0 4.36 c0 0.78 0.34 1.06 0.92 1.06 z  M61.32 11.5 l-6.56 0 l0 4.74 l5.42 0 l0 1.42 l-5.42 0 l0 6.34 l-1.7 0 l0 -14 l8.26 0 l0 1.5 z M70.08 9.8 c3.64 0 7.16 2.96 7.16 7.2 s-3.52 7.2 -7.16 7.2 c-3.66 0 -7.16 -2.96 -7.16 -7.2 s3.5 -7.2 7.16 -7.2 z M70.08 22.62 c2.74 0 5.44 -2.32 5.44 -5.62 s-2.7 -5.62 -5.44 -5.62 c-2.76 0 -5.44 2.32 -5.44 5.62 s2.68 5.62 5.44 5.62 z M89.62 24 l-1.8 0 l-3.54 -5.04 l-0.38 0 l-2.9 0 l0 5.04 l-1.66 0 l0 -14 l4.56 0 c3.14 0 4.96 1.92 4.96 4.52 c0 2 -1.08 3.56 -3 4.16 z M81 11.56 l0 5.92 l2.86 0 c2.02 0 3.34 -1.04 3.34 -2.96 c0 -1.94 -1.32 -2.96 -3.34 -2.96 l-2.86 0 z M109.74 10 l-4.52 14 l-1.08 0 l-3.86 -10.94 l-3.84 10.94 l-1.08 0 l-4.54 -14 l1.72 0 l3.42 10.58 l3.74 -10.58 l1.16 0 l3.76 10.58 l3.42 -10.58 l1.7 0 z M122.86 24 l-1.44 -3.3 l-7.48 0 l-1.44 3.3 l-1.76 0 l6.24 -14 l1.38 0 l6.26 14 l-1.76 0 z M114.56 19.3 l6.24 0 l-3.12 -7.12 z M136.5 24 l-1.8 0 l-3.54 -5.04 l-0.38 0 l-2.9 0 l0 5.04 l-1.66 0 l0 -14 l4.56 0 c3.14 0 4.96 1.92 4.96 4.52 c0 2 -1.08 3.56 -3 4.16 z M127.88000000000001 11.56 l0 5.92 l2.86 0 c2.02 0 3.34 -1.04 3.34 -2.96 c0 -1.94 -1.32 -2.96 -3.34 -2.96 l-2.86 0 z M142.46000000000004 10 c4.08 0 7.08 3.1 7.08 7 s-3 7 -7.08 7 l-4.16 0 l0 -14 l4.16 0 z M142.44000000000003 22.42 c3.34 0 5.4 -2.42 5.4 -5.42 s-2.06 -5.42 -5.4 -5.42 l-2.48 0 l0 10.84 l2.48 0 z"/></g>
			</g>
		</svg>
	